<svg width="32" height="32" viewBox="0 0 32 32" fill="none" xmlns="http://www.w3.org/2000/svg">
  <!-- Background -->
  <rect width="32" height="32" rx="6" fill="#5865F2"/>
  
  <!-- Gift Box Base -->
  <rect x="8" y="14" width="16" height="12" rx="2" fill="white"/>
  
  <!-- Gift Box Ribbon -->
  <rect x="14" y="14" width="4" height="12" fill="#FF73FA"/>
  
  <!-- Gift Box Lid -->
  <rect x="6" y="10" width="20" height="6" rx="2" fill="white"/>
  
  <!-- Gift Box Bow -->
  <circle cx="16" cy="10" r="4" fill="#FF73FA"/>
  <path d="M16 6C17.1046 6 18 6.89543 18 8C18 9.10457 17.1046 10 16 10C14.8954 10 14 9.10457 14 8C14 6.89543 14.8954 6 16 6Z" fill="#FF73FA"/>
  <path d="M16 6C14.8954 6 14 6.89543 14 8C14 9.10457 14.8954 10 16 10C17.1046 10 18 9.10457 18 8C18 6.89543 17.1046 6 16 6Z" fill="#FF73FA"/>
  <path d="M21 10C22.1046 10 23 10.8954 23 12C23 13.1046 22.1046 14 21 14C19.8954 14 19 13.1046 19 12C19 10.8954 19.8954 10 21 10Z" fill="#FF73FA"/>
  <path d="M11 10C12.1046 10 13 10.8954 13 12C13 13.1046 12.1046 14 11 14C9.89543 14 9 13.1046 9 12C9 10.8954 9.89543 10 11 10Z" fill="#FF73FA"/>
  
  <!-- GG Text -->
  <text x="7.5" y="23" font-family="Arial, sans-serif" font-size="8" font-weight="bold" fill="#5865F2">GG</text>
</svg> 